<svg xmlns="http://www.w3.org/2000/svg" width="1920" height="1260" viewBox="0 0 1920 1260">
  <defs>
    <style>
      .cls-1 {
        fill-rule: evenodd;
      }
    </style>
  </defs>
  <path id="Color_Fill_1" data-name="Color Fill 1" class="cls-1" d="M0,0H1920V916c-27.7-2.8-60.88-12.873-86-20l-30-3c-18.66-10.409-9.19-40.34-23-54q-7.995-3-16-6-13.995-16-28-32c-3.55-4.378-.74-8.439-3-15l-18-23-14-2c-7.77-4.241-10.8-14.174-17-20-4.57-4.3-12.57-4.687-17-9q1.995-8,4-16h-9c-9.06,3-19.54,3.484-26,9-18.49,15.784-23.19,34.795-57,31-0.61-17.372-11.81-18.635-28-21-4.81-7.473-12.85-18.63-14-28,4.05-8.394,9.96-14.6,16-21-0.33-3.333-.67-6.667-1-10-4.2-9.823-16.63-22.52-28-25-16.27-3.547-24.25,9.887-35,13-37.96,11-63.33,20.048-92,39-8.48,5.609-9.37,19.179-18,24-5.11,2.784-10.36,2.895-13,0,0.02-18.952-70.51-75.959-109-63l-12,11-38,2c8.16-5.092-1.21-11.279-6-15-26.7.327-22.41-7.849-41-14-24.21-8.01-59.99,10.59-65,26q-0.495,13-1,26c-1.33.667-2.67,1.333-4,2-7.38-4.35-6.64-12.7-13-17-21.38-9.184-39.25,12.5-48,21-20.13-.251-31.737-11.447-46-16l-70-2c-12.462,2.69-18.293,14.842-28,18-33.115,10.775-54.462-21.646-88-8-9.845,4.006-25.918,20.911-29,32-2.077,7.473,2.031,28.681-5,31-7.352,2.424-12.835-11.328-18-13-10.546-3.414-22.6,2.527-28,4H702c-28.545,8.016-28.1,32.525-26,66-23.328-.362-41.461-4.518-51,12-4.313,7.469-3.64,12.388-9,18-26.66.577-32.878-13.512-46-26-26.094-.752-38.38,9.307-47,25-17.963-3.342-62.324,2.5-79-3l-36-34c-45.766.254-34.015,18.856-56,26-18.258,5.932-74.918-.451-88-4H230l-28-23c-7.184-3.772-17.317-2.1-24-5-11.734-5.1-20.971-17.061-36-20-20.7-4.047-29.348,14.42-42,19-32.006,11.585-89.633-6.858-100-21V0Z"/>
</svg>
