<?xml version="1.0" standalone="no"?>
<!DOCTYPE svg PUBLIC "-//W3C//DTD SVG 20010904//EN"
 "http://www.w3.org/TR/2001/REC-SVG-20010904/DTD/svg10.dtd">
<svg version="1.0" xmlns="http://www.w3.org/2000/svg"
 width="1028.000000pt" height="1280.000000pt" viewBox="0 0 1028.000000 1280.000000"
 preserveAspectRatio="xMidYMid meet">
<metadata>
Created by potrace 1.15, written by Peter Selinger 2001-2017
</metadata>
<g transform="translate(0.000000,1280.000000) scale(0.100000,-0.100000)"
fill="#000000" stroke="none">
<path d="M926 12759 c-3 -24 -24 -314 -46 -644 -22 -330 -42 -621 -44 -647 -5
-45 -1 -52 80 -179 47 -73 83 -138 80 -145 -4 -9 -149 -267 -214 -378 -3 -5 2
-6 12 -3 10 4 -1 -17 -27 -51 -84 -108 -82 -95 -84 -387 -14 -1550 -68 -2555
-173 -3175 -10 -63 -33 -288 -50 -500 -27 -339 -68 -851 -100 -1245 -6 -71
-15 -182 -21 -245 -16 -194 -179 -2242 -194 -2450 -61 -826 -106 -1506 -103
-1562 l4 -67 -23 21 c-28 26 -27 32 -3 -94 26 -135 62 -242 117 -353 141 -282
264 -377 575 -444 414 -88 1460 -130 4028 -161 476 -6 1014 -17 1195 -25 602
-26 693 -27 1720 -11 1159 19 1290 26 1415 76 25 10 102 25 172 34 167 21 239
45 324 105 80 56 328 315 380 396 65 103 203 442 243 603 24 93 29 141 41 435
35 809 43 1113 44 1697 1 839 -15 1062 -93 1292 -72 209 -119 416 -141 613 -6
55 -20 170 -30 255 -20 162 -32 293 -50 545 -6 83 -15 211 -20 285 -30 418
-31 437 -80 1243 -5 89 -14 239 -20 332 -10 158 -15 245 -40 655 -5 85 -14
238 -20 340 -6 102 -15 257 -21 346 -9 141 -7 179 10 315 50 384 70 712 60
969 -10 220 -22 261 -134 462 -52 93 -95 174 -95 181 0 7 20 73 45 148 l46
137 -40 278 c-22 154 -58 412 -81 574 -22 162 -43 310 -46 328 l-5 32 -187 0
c-103 0 -446 4 -762 10 -646 10 -1937 25 -3485 40 -572 6 -1301 15 -1620 20
-319 5 -879 14 -1245 20 -366 5 -805 13 -977 16 l-311 6 -6 -43z"/>
</g>
</svg>
